<?xml version="1.0" encoding="utf-8"?>
<!-- Generator: Adobe Illustrator 26.4.1, SVG Export Plug-In . SVG Version: 6.00 Build 0)  -->
<svg version="1.1" id="Layer_1" xmlns="http://www.w3.org/2000/svg" xmlns:xlink="http://www.w3.org/1999/xlink" x="0px" y="0px"
	 viewBox="0 0 970 316" style="enable-background:new 0 0 970 316;" xml:space="preserve">
<style type="text/css">
	.st0{fill:#FFFFFF;}
	.st1{fill:#DC322F;}
</style>
<g>
	<g>
		<g>
			<path class="st0" d="M50.98,192.37h79.91v12.79H98.16v70.71H83.84v-70.71H50.98V192.37z"/>
		</g>
		<g>
			<path class="st0" d="M155.57,275.86v-83.49h14.32v31.58h45.39v-31.58h14.32v83.49h-14.32v-39.13h-45.39v39.13H155.57z"/>
		</g>
		<g>
			<path class="st0" d="M264.89,275.86v-83.49h14.32v83.49H264.89z"/>
		</g>
		<g>
			<path class="st0" d="M373.57,211.93c-4.6-4.22-14.96-9.72-30.3-9.72c-9.97,0-18.8,3.2-18.8,12.02c0,9.08,12.4,9.46,25.06,10.36
				c14.96,1.02,38.49,2.56,38.49,25.83c0,20.2-16.88,28-36.83,28c-21.99,0-36.31-9.08-45.65-17.52l8.69-9.97
				c6.78,6.14,18.54,15.09,37.21,15.09c12.4,0,22.25-4.22,22.25-13.68c0-10.49-9.59-12.66-24.17-13.81
				c-18.41-1.28-39.38-2.81-39.38-23.01c0-19.82,18.28-25.7,33.63-25.7c17.65,0,31.84,6.91,38.49,12.15L373.57,211.93z"/>
		</g>
		<g>
			<path class="st0" d="M529.56,261.03c-8.95,8.95-23.02,17.39-41.17,17.39c-27.49,0-45.65-19.82-45.65-44.37
				c0-24.17,18.28-44.24,45.01-44.24c15.22,0,29.79,6.01,39.13,14.7l-9.72,9.59c-7.42-7.03-18.92-11.51-29.15-11.51
				c-18.28,0-30.18,14.32-30.18,31.58c0,17.39,12.15,31.46,30.81,31.46c13.04,0,24.17-6.39,31.33-14.06L529.56,261.03z"/>
		</g>
		<g>
			<path class="st0" d="M734.9,275.86v-83.49h40.02c15.09,0,23.53,4.22,30.69,11.12c7.42,7.67,11.38,18.41,11.38,30.56
				c0,12.53-4.35,23.91-12.28,31.58c-7.16,6.39-14.7,10.23-29.79,10.23H734.9z M774.28,263.08c10.61,0,14.19-2.43,19.18-6.52
				c5.37-5.37,8.57-13.55,8.57-22.5c0-8.69-2.81-16.49-8.05-21.86c-4.73-4.35-9.21-7.03-19.69-7.03h-25.06v57.92H774.28z"/>
		</g>
		<g>
			<path class="st0" d="M891.91,238.66h-32.09v24.42h56.51v12.79H845.5v-83.49h67.77v12.79h-53.45v20.71h32.09V238.66z"/>
		</g>
	</g>
	<g>
		<g>
			<polygon class="st1" points="652.12,280.03 642.82,270.62 681.33,232.57 642.82,194.53 652.12,185.12 700.16,232.57 			"/>
		</g>
		<g>
			<polygon class="st1" points="606.68,280.03 558.64,232.57 606.68,185.12 615.98,194.53 577.47,232.57 615.98,270.62 			"/>
		</g>
	</g>
	<g>
		<g>
			<path class="st0" d="M35,130.63V47.14h40.02c15.09,0,23.53,4.22,30.69,11.12c7.42,7.67,11.38,18.41,11.38,30.56
				c0,12.53-4.35,23.91-12.28,31.58c-7.16,6.39-14.7,10.23-29.79,10.23H35z M74.38,117.84c10.61,0,14.19-2.43,19.18-6.52
				c5.37-5.37,8.57-13.55,8.57-22.5c0-8.69-2.81-16.49-8.05-21.86c-4.73-4.35-9.21-7.03-19.69-7.03H49.32v57.92H74.38z"/>
		</g>
		<g>
			<path class="st0" d="M185.11,44.58c26.34,0,47.31,19.69,47.31,44.11c0,24.8-20.97,44.5-47.31,44.5s-46.92-19.69-46.92-44.5
				C138.18,64.27,158.77,44.58,185.11,44.58z M185.11,120.4c18.03,0,32.22-14.32,32.22-31.71c0-17.26-14.19-31.33-32.22-31.33
				c-17.9,0-31.84,14.06-31.84,31.33C153.27,106.08,167.21,120.4,185.11,120.4z"/>
		</g>
		<g>
			<path class="st0" d="M292.89,44.66c-16.24,8.82-27.11,26.47-27.11,46.54c0,20.2,10.87,37.59,27.11,46.41l-7.16,8.69
				c-21.61-10.99-34.27-31.2-34.27-55.11s12.66-44.24,34.27-55.24L292.89,44.66z"/>
		</g>
		<g>
			<path class="st0" d="M392.5,47.14v83.49h-12.66l-48.2-57.92h-0.13v57.92h-14.32V47.14h12.66l48.2,57.92h0.13V47.14H392.5z"/>
		</g>
		<g>
			<path class="st0" d="M418.7,75.52c6.14-1.54,16.37-7.03,16.37-13.81v-1.02c-1.02,0.25-2.17,0.64-3.45,0.64
				c-5.5,0-9.59-3.58-9.59-8.31s4.09-8.44,9.59-8.44c6.78,0,13.3,5.75,13.3,13.68c0,15.21-13.04,22.12-22.38,25.32L418.7,75.52z"/>
		</g>
		<g>
			<path class="st0" d="M460.9,47.14h79.91v12.79h-32.73v70.71h-14.32V59.92H460.9V47.14z"/>
		</g>
		<g>
			<path class="st0" d="M561.65,35.97c21.61,11,34.27,31.33,34.27,55.24s-12.66,44.11-34.27,55.11l-7.16-8.69
				c16.24-8.82,27.11-26.21,27.11-46.41c0-20.07-10.87-37.72-27.11-46.54L561.65,35.97z"/>
		</g>
		<g>
			<path class="st0" d="M730.04,47.14v53.83c0,20.59-15.85,32.22-37.08,32.22c-21.1,0-36.95-11.64-36.95-32.22V47.14h14.32v53.83
				c0,12.53,9.97,19.44,22.63,19.44c12.79,0,22.76-6.91,22.76-19.44V47.14H730.04z"/>
		</g>
		<g>
			<path class="st0" d="M822.74,66.7c-4.6-4.22-14.96-9.72-30.3-9.72c-9.97,0-18.8,3.2-18.8,12.02c0,9.08,12.4,9.46,25.06,10.36
				c14.96,1.02,38.49,2.56,38.49,25.83c0,20.2-16.88,28-36.83,28c-21.99,0-36.31-9.08-45.65-17.52l8.69-9.97
				c6.78,6.14,18.54,15.09,37.21,15.09c12.4,0,22.25-4.22,22.25-13.68c0-10.49-9.59-12.66-24.17-13.81
				c-18.41-1.28-39.38-2.81-39.38-23.01c0-19.82,18.28-25.7,33.63-25.7c17.65,0,31.84,6.91,38.49,12.15L822.74,66.7z"/>
		</g>
		<g>
			<path class="st0" d="M910.58,93.42h-32.09v24.42H935v12.79h-70.84V47.14h67.77v12.79h-53.45v20.71h32.09V93.42z"/>
		</g>
	</g>
</g>
</svg>
